<!-- icon666.com - MILLIONS vector ICONS FREE --><svg id="Layer_3" viewBox="0 0 64 64" xmlns="http://www.w3.org/2000/svg" data-name="Layer 3"><path d="m14.262 34.434a2.986 2.986 0 0 0 -2.262 2.897v2.833a20.351 20.351 0 0 0 3.093 10.785 6.492 6.492 0 0 0 5.507 3.051 6.488 6.488 0 0 0 4.225-1.563 18.433 18.433 0 0 1 11.993-4.437h7.087a6.1 6.1 0 0 0 6.095-6.095 4.7 4.7 0 0 0 -2.6-4.2 4.708 4.708 0 0 1 -2.1-2.1 4.7 4.7 0 0 0 -4.2-2.605h-1.18a10.522 10.522 0 0 1 -5.42-1.5 10.522 10.522 0 0 0 -5.415-1.5h-9.753a2.988 2.988 0 0 0 -2.9 2.262 2.986 2.986 0 0 1 -2.17 2.172z"></path><ellipse cx="31" cy="19" rx="4" ry="5"></ellipse><ellipse cx="22" cy="20" rx="4" ry="5"></ellipse><ellipse cx="41" cy="20" rx="4" ry="5"></ellipse><ellipse cx="13" cy="25" rx="3" ry="5"></ellipse><ellipse cx="51" cy="31" rx="3" ry="5"></ellipse><path d="m27 57.77a4.23 4.23 0 0 0 4.23 4.23 4.229 4.229 0 0 0 3.877-2.539l.443-1.015a3.12 3.12 0 0 0 -.531-3.427l-.019-.019a3.415 3.415 0 0 0 -2.414-1h-1.816a3.77 3.77 0 0 0 -3.77 3.77z"></path><path d="m49.5 24h.026a1.474 1.474 0 0 0 1.474-1.474 6.465 6.465 0 0 0 -.683-2.891 6.437 6.437 0 0 1 -.489-1.324l-.828-3.311-.51 2.549a25.242 25.242 0 0 0 -.49 4.951 1.5 1.5 0 0 0 1.5 1.5z"></path><path d="m41.5 13h.026a1.474 1.474 0 0 0 1.474-1.474 6.465 6.465 0 0 0 -.683-2.891 6.437 6.437 0 0 1 -.489-1.324l-.828-3.311-.51 2.549a25.242 25.242 0 0 0 -.49 4.951 1.5 1.5 0 0 0 1.5 1.5z"></path><path d="m14.5 18h-.026a1.474 1.474 0 0 1 -1.474-1.474 6.465 6.465 0 0 1 .683-2.891 6.437 6.437 0 0 0 .489-1.324l.828-3.311.51 2.549a25.242 25.242 0 0 1 .49 4.951 1.5 1.5 0 0 1 -1.5 1.5z"></path><path d="m23.5 13h-.026a1.474 1.474 0 0 1 -1.474-1.474 6.465 6.465 0 0 1 .683-2.891 6.437 6.437 0 0 0 .489-1.324l.828-3.311.51 2.549a25.242 25.242 0 0 1 .49 4.951 1.5 1.5 0 0 1 -1.5 1.5z"></path><path d="m31.5 11h-.026a1.474 1.474 0 0 1 -1.474-1.474 6.465 6.465 0 0 1 .683-2.891 6.437 6.437 0 0 0 .489-1.324l.828-3.311.51 2.549a25.242 25.242 0 0 1 .49 4.951 1.5 1.5 0 0 1 -1.5 1.5z"></path></svg>